<svg xmlns="http://www.w3.org/2000/svg" xmlns:xlink="http://www.w3.org/1999/xlink" version="1.1" x="0px" y="0px" viewBox="0 0 100 125" style="enable-background:new 0 0 100 100;" xml:space="preserve"><path d="M87.8,22.8l2.4-2.4c0.4-0.4,0.5-0.9,0.4-1.4s-0.5-0.9-1-1.1L52.1,4.7c-2-0.7-4.2-0.2-5.7,1.3l-32,32c0,0,0,0,0,0  c-0.1,0.1-0.2,0.2-0.2,0.3c0,0,0,0.1,0,0.1c0,0.1-0.1,0.1-0.1,0.2c0,0,0,0.1,0,0.1c0,0,0,0.1,0,0.1c-0.4,2.2-0.6,4.4-0.6,6.8  c0,1.4,0.1,2.8,0.2,4.2L10.4,53c0,0,0,0,0,0c-0.1,0.1-0.1,0.2-0.2,0.3c0,0,0,0.1,0,0.1c0,0.1-0.1,0.1-0.1,0.2c0,0,0,0.1,0,0.1  c0,0,0,0.1,0,0.1c-0.4,2.2-0.6,4.4-0.6,6.8s0.2,4.6,0.6,6.8c0,0,0,0,0,0c0,0.2,0.1,0.3,0.2,0.4c0,0,0,0,0,0.1  c0.1,0.1,0.2,0.2,0.3,0.3c0,0,0,0,0.1,0c0.1,0.1,0.2,0.2,0.4,0.2c0,0,0,0,0,0c0,0,0,0,0,0l1.7,0.6c-0.2,1.5-0.3,3-0.3,4.5  c0,2.3,0.2,4.6,0.6,6.8c0,0,0,0,0,0c0,0.2,0.1,0.3,0.2,0.4c0,0,0,0,0,0.1c0.1,0.1,0.2,0.2,0.3,0.3c0,0,0,0,0,0  c0.1,0.1,0.2,0.2,0.4,0.2c0,0,0,0,0,0c0,0,0,0,0,0l39.8,14c0.2,0.1,0.3,0.1,0.5,0.1c0.4,0,0.8-0.2,1.1-0.4l33.8-33.8  c0.4-0.4,0.5-0.9,0.4-1.4c-0.1-0.5-0.5-0.9-1-1.1L87,58.4c-0.2-1.7-0.4-3.4-0.4-5.2c0-0.8,0-1.6,0.1-2.4l2.4-2.4  c0.4-0.4,0.5-0.9,0.4-1.4s-0.5-0.9-1-1.1l-4.7-1.6c-0.1-1.3-0.2-2.7-0.2-4.1c0-0.1,0-0.2,0-0.3l6.5-6.5c0.4-0.4,0.5-0.9,0.4-1.4  c-0.1-0.5-0.5-0.9-1-1.1L88,30.4c-0.2-1.7-0.4-3.4-0.4-5.2C87.7,24.4,87.7,23.6,87.8,22.8z M16.4,45.6c0-1.5,0.1-3,0.3-4.5  l35.5,12.5c-0.2,1.7-0.4,3.5-0.4,5.3c0,1.5,0.1,3,0.3,4.5L16.8,51C16.6,49.2,16.4,47.4,16.4,45.6z M48.1,68.6  c-0.2,1.7-0.4,3.5-0.4,5.3c0,1.5,0.1,3,0.3,4.5L12.8,66c-0.3-1.7-0.4-3.5-0.4-5.4c0-1.5,0.1-3,0.3-4.5L48.1,68.6z M86.1,30.7  L54,62.7c-0.1-1.2-0.2-2.5-0.2-3.8c0-1.6,0.1-3.1,0.3-4.6l0.7,0.3c0.2,0.1,0.3,0.1,0.5,0.1c0.4,0,0.8-0.2,1.1-0.4l29.3-29.3  c0,0.1,0,0.2,0,0.3C85.7,27.1,85.8,28.9,86.1,30.7z M50.8,82.5c0.1,0,0.1,0,0.2,0c-0.2,1.4-0.3,2.9-0.3,4.4c0,1.5,0.1,3,0.3,4.5  L15.8,79c-0.3-1.7-0.4-3.5-0.4-5.4c0-1.2,0.1-2.3,0.2-3.5L50.8,82.5z M85.1,58.7L53,90.7c-0.1-1.2-0.2-2.5-0.2-3.8  c0-1.6,0.1-3.1,0.3-4.6l0.7,0.3c0.2,0.1,0.3,0.1,0.5,0.1c0.4,0,0.8-0.2,1.1-0.4l29.3-29.3c0,0.1,0,0.2,0,0.3  C84.7,55.1,84.8,56.9,85.1,58.7z M82.1,45.7L50,77.7c-0.1-1.2-0.2-2.5-0.2-3.8c0-1.6,0.1-3.1,0.3-4.6l0.7,0.3  c0.2,0.1,0.3,0.1,0.5,0.1c0.4,0,0.8-0.2,1.1-0.4l1.9-1.9l0.6,0.2c0.2,0.1,0.3,0.1,0.5,0.1c0.4,0,0.8-0.2,1.1-0.4l25.3-25.3  C81.8,43.1,81.9,44.4,82.1,45.7z"/><text x="0" y="115" fill="#000000" font-size="5px" font-weight="bold" font-family="'Helvetica Neue', Helvetica, Arial-Unicode, Arial, Sans-serif">Created by mikicon</text><text x="0" y="120" fill="#000000" font-size="5px" font-weight="bold" font-family="'Helvetica Neue', Helvetica, Arial-Unicode, Arial, Sans-serif">from the Noun Project</text></svg>